<svg xmlns="http://www.w3.org/2000/svg" id="Layer_1" viewBox="0 0 1310.23 292.77"><defs><style>.cls-1{fill:#000;}.cls-1,.cls-2,.cls-3,.cls-4,.cls-5,.cls-6{stroke-width:0px;}.cls-2{fill:#414042;}.cls-3{fill:#0054a6;}.cls-4{fill:#388840;}.cls-5{fill:#fff;}.cls-6{fill:#004c75;}</style></defs><path class="cls-6" d="M151.25,148.6v-5.98c0-4.23-.23-6.97-.67-8.21-.47-1.22-1.4-1.85-2.78-1.85-1.73,0-2.8.52-3.21,1.58-.42,1.05-.63,3.87-.63,8.48v5.98h7.29ZM176.26,161.93h-32.29v17.71c0,3.71.28,6.09.8,7.16.55,1.06,1.58,1.61,3.1,1.61,1.89,0,3.16-.72,3.79-2.14.63-1.43.96-4.17.96-8.23v-10.81h23.63v6.04c0,5.06-.34,8.95-.97,11.67s-2.12,5.61-4.46,8.71c-2.36,3.07-5.33,5.39-8.93,6.93-3.58,1.55-8.12,2.31-13.55,2.31s-9.9-.76-13.95-2.27c-4.02-1.52-7.16-3.61-9.39-6.26-2.25-2.66-3.81-5.59-4.67-8.76-.86-3.2-1.29-7.84-1.29-13.93v-23.88c0-7.16.97-12.81,2.89-16.94,1.94-4.13,5.12-7.31,9.52-9.49,4.4-2.21,9.46-3.32,15.16-3.32,7,0,12.78,1.33,17.32,3.98,4.55,2.66,7.73,6.17,9.56,10.56,1.84,4.38,2.76,10.53,2.76,18.47v10.87h0Z"></path><path class="cls-6" d="M566.91,118.05h-17.52v-3.51c0-3-.17-4.91-.52-5.72-.34-.8-1.2-1.2-2.56-1.2-1.11,0-1.95.37-2.5,1.11s-.83,1.84-.83,3.31c0,1.99.14,3.46.42,4.38.29.94,1.12,1.97,2.5,3.06,1.39,1.12,4.23,2.74,8.54,4.84,5.74,2.81,9.5,5.46,11.31,7.93,1.79,2.49,2.69,6.09,2.69,10.83,0,5.27-.69,9.27-2.05,11.95-1.38,2.7-3.67,4.76-6.89,6.21-3.21,1.46-7.08,2.18-11.62,2.18-5.02,0-9.32-.77-12.91-2.34-3.57-1.57-6.02-3.7-7.36-6.37-1.34-2.68-2-6.73-2-12.15v-3.12h17.51v4.11c0,3.48.22,5.76.68,6.8.42,1.06,1.3,1.57,2.6,1.57,1.41,0,2.39-.36,2.94-1.06.55-.71.84-2.19.84-4.43,0-3.1-.35-5.05-1.06-5.84-.76-.77-4.6-3.08-11.52-6.94-5.81-3.26-9.34-6.21-10.63-8.88-1.26-2.66-1.89-5.83-1.89-9.47,0-5.18.69-9.01,2.06-11.48,1.37-2.45,3.69-4.36,6.97-5.69,3.29-1.34,7.09-2.01,11.43-2.01s7.97.56,10.97,1.64c3.03,1.1,5.35,2.53,6.95,4.33,1.62,1.8,2.61,3.46,2.94,4.99.36,1.53.52,3.94.52,7.2v3.76h0ZM500.26,116.2c0-4.01-.15-6.45-.43-7.29-.3-.84-1.12-1.28-2.46-1.28s-2.14.51-2.52,1.47c-.37.99-.55,3.36-.55,7.11v26.9c0,3.91.19,6.37.58,7.35.39.98,1.24,1.47,2.53,1.47s2.09-.45,2.38-1.35c.32-.89.47-3.07.47-6.53v-27.84h0ZM494.63,97.31l-.33,5.73c1.75-2.32,3.69-4.05,5.81-5.18,2.12-1.16,4.44-1.72,6.94-1.72,3.08,0,5.71.81,7.95,2.47s3.64,3.54,4.2,5.71c.55,2.15.83,5.8.83,10.94v27.37c0,5.91-.34,10.1-1.05,12.61-.7,2.49-2.13,4.48-4.3,5.97-2.16,1.48-4.79,2.22-7.85,2.22-2.45,0-4.72-.57-6.81-1.71-2.08-1.15-3.99-2.84-5.71-5.09v14.88h-19.77v-74.2h20.1-.01ZM467.42,162.26h-20.36v-64.95h20.36v64.95ZM467.42,93.35h-20.36v-10.32h20.36v10.32ZM414.32,83.03v17.8c1.69-1.55,3.53-2.73,5.51-3.52,1.97-.79,4.08-1.17,6.34-1.17,3.46,0,6.4.89,8.82,2.65,2.43,1.76,3.93,3.78,4.46,6.09s.8,6.5.8,12.59v44.78h-19.75v-45.71c0-3.79-.21-6.21-.58-7.3-.36-1.06-1.21-1.62-2.51-1.62-1.2,0-2.02.57-2.44,1.68-.44,1.1-.64,3.3-.64,6.62v46.33h-19.77v-79.23h19.77,0ZM388.66,121.83h-18.64v-7.48c0-2.61-.21-4.38-.63-5.31-.44-.93-1.2-1.41-2.36-1.41s-1.9.42-2.3,1.24c-.39.82-.59,2.64-.59,5.48v30.63c0,2.31.3,4.04.89,5.21.59,1.15,1.45,1.75,2.59,1.75,1.33,0,2.26-.6,2.72-1.82.47-1.2.71-3.49.71-6.85v-7.73h17.61c-.02,5.19-.22,9.08-.56,11.67s-1.42,5.26-3.28,7.99c-1.83,2.72-4.24,4.77-7.21,6.16-2.98,1.39-6.63,2.07-11.02,2.07-5.57,0-10-.96-13.25-2.85-3.26-1.91-5.58-4.57-6.93-8.04-1.35-3.44-2.02-8.32-2.02-14.65v-18.44c0-5.53.55-9.69,1.65-12.5,1.13-2.8,3.49-5.29,7.11-7.5,3.63-2.21,8.03-3.31,13.21-3.31s9.56,1.08,13.22,3.27c3.66,2.19,6.08,4.94,7.3,8.26,1.2,3.34,1.79,8.05,1.79,14.15M318.7,115.23c0-3.34-.18-5.44-.53-6.3-.37-.86-1.14-1.31-2.31-1.31s-1.96.44-2.34,1.31c-.4.86-.61,2.95-.61,6.3v29.29c0,3.09.2,5.08.61,6,.38.93,1.15,1.4,2.29,1.4s1.95-.44,2.32-1.28c.38-.85.56-2.68.56-5.48v-29.94h0ZM338.48,120.12v15.89c0,5.83-.31,10.12-.89,12.85-.59,2.73-1.84,5.27-3.78,7.63-1.91,2.36-4.39,4.11-7.39,5.23-3.02,1.13-6.52,1.69-10.41,1.69-4.38,0-8.07-.47-11.1-1.44-3.05-.97-5.41-2.42-7.07-4.36-1.7-1.94-2.89-4.28-3.61-7.05-.72-2.76-1.07-6.89-1.07-12.4v-16.65c0-6.03.65-10.74,1.95-14.14,1.29-3.39,3.65-6.11,7.04-8.16,3.4-2.05,7.74-3.09,13.02-3.09,4.45,0,8.25.66,11.43,1.99,3.19,1.33,5.64,3.04,7.36,5.16,1.74,2.13,2.91,4.31,3.56,6.55.63,2.26.95,5.68.95,10.3M289.98,83.01v10.02c-4.08,0-6.49.21-7.22.57-.74.39-1.1,1.45-1.1,3.21v2.05h8.31v10.27h-4.71v53.1h-19.76v-53.1h-4.06v-10.27h4.06c0-4.28.15-7.13.44-8.58.3-1.43,1.01-2.7,2.18-3.83,1.15-1.13,2.78-1.98,4.86-2.56,2.1-.61,5.33-.89,9.74-.89h7.26ZM232.46,97.3l-.33,5.98c1.43-2.38,3.19-4.18,5.25-5.36,2.09-1.19,4.48-1.78,7.18-1.78,3.39,0,6.17.8,8.33,2.41,2.15,1.58,3.54,3.61,4.15,6.03.62,2.45.93,6.49.93,12.16v45.53h-19.76v-44.96c0-4.48-.15-7.2-.46-8.19-.28-.96-1.09-1.47-2.43-1.47-1.41,0-2.3.57-2.65,1.71-.37,1.12-.54,4.13-.54,9.02v43.9h-19.77v-64.95h20.1v-.03ZM204.67,162.25h-20.61v-79.23h20.61v79.23Z"></path><path class="cls-6" d="M121.28,86.53c50.39-39.92,99.14-62.83,108.52-50.99,9.38,11.84-24.07,54.06-74.46,93.99-.63.5-1.27,1-1.9,1.49h1.33v8.33c1.72-1.33,3.43-2.68,5.15-4.03,66.8-52.92,111.57-108.34,99.66-123.37-11.9-15.03-76.1,15.88-142.9,68.8C49.9,133.65,5.13,189.07,17.03,204.11c10.73,13.55,63.94-10.23,123.24-53.81v-9.31c-44.7,32.69-85.01,50.17-93.45,39.51-9.38-11.84,24.07-54.06,74.46-93.98"></path><path class="cls-2" d="M250.04,185.59c-.54-1.46-.92-2.63-1.08-3.33h-.04c-.21.71-.54,1.83-1.08,3.37l-3.17,9.29h8.58l-3.21-9.33h0ZM240.75,206.25h-3.83l10.12-28.33h4.08l9.96,28.33h-3.96l-2.83-8.16h-10.71l-2.83,8.16h0Z"></path><path class="cls-2" d="M280.83,206.26h-3.46v-11.54c0-4.29-1.58-5.71-4.5-5.71-3.33,0-5.25,2.67-5.25,5.79v11.46h-3.46v-19.83h3.46v2.95c1.04-1.83,3.08-3.42,6.37-3.42,2.58,0,4.5.88,5.58,2.54.84,1.29,1.25,3,1.25,5.33v12.42h.01Z"></path><path class="cls-2" d="M304.04,185.59c-.54-1.46-.92-2.63-1.08-3.33h-.04c-.21.71-.54,1.83-1.08,3.37l-3.16,9.29h8.58l-3.21-9.33h-.01ZM294.75,206.25h-3.83l10.12-28.33h4.08l9.96,28.33h-3.96l-2.83-8.16h-10.71l-2.83,8.16h0Z"></path><path class="cls-2" d="M328.75,189.34c-.42-.08-.92-.12-1.29-.12-3.75,0-5.83,3.33-5.83,6.66v10.38h-3.46v-19.83h3.46v3.75c.46-2.29,3.25-4.25,6-4.25.37,0,.84.04,1.13.12v3.29h-.01Z"></path><path class="cls-2" d="M342.92,189.34c-.42-.08-.92-.12-1.29-.12-3.75,0-5.83,3.33-5.83,6.66v10.38h-3.46v-19.83h3.46v3.75c.46-2.29,3.25-4.25,6-4.25.37,0,.84.04,1.13.12v3.29h-.01Z"></path><path class="cls-2" d="M354.3,203.88c3.5,0,5.92-2.79,5.92-7.5s-2.34-7.58-5.92-7.58-5.92,2.83-5.92,7.58,2.42,7.5,5.92,7.5M354.3,185.96c5.58,0,9.46,4.08,9.46,10.46s-3.79,10.33-9.46,10.33-9.46-4-9.46-10.33,3.87-10.46,9.46-10.46"></path><path class="cls-2" d="M385.25,197.3c.54,1.71,1,3.29,1.25,4.25h.04c.25-.92.75-2.75,1.29-4.38l3.46-10.75h3.58l-6.87,19.83h-3.12l-3.46-11.29c-.54-1.67-.96-3.21-1.08-3.71h-.04c-.12.5-.54,2.04-1.08,3.75l-3.58,11.25h-3.25l-6.79-19.83h3.67l3.62,10.87c.54,1.58,1.04,3.33,1.29,4.25h.04c.25-.96.71-2.63,1.25-4.29l3.54-10.83h3l3.25,10.87h-.01Z"></path><path class="cls-2" d="M428.72,199.8c-2.04,4.33-5.96,6.96-11.16,6.96-7.5,0-12.91-5.42-12.91-14.67,0-8.62,4.96-14.66,12.91-14.66,5,0,8.79,2.46,10.92,6.46l-3.12,2.12c-1.46-3.46-4.17-5.37-7.79-5.37-5.63,0-9.08,4.5-9.08,11.46s3.46,11.46,9.08,11.46c3.66,0,6.37-2,7.83-5.42l3.33,1.67h0Z"></path><path class="cls-2" d="M440.93,203.88c3.5,0,5.92-2.79,5.92-7.5s-2.34-7.58-5.92-7.58-5.92,2.83-5.92,7.58,2.42,7.5,5.92,7.5M440.93,185.96c5.58,0,9.46,4.08,9.46,10.46s-3.79,10.33-9.46,10.33-9.46-4-9.46-10.33,3.87-10.46,9.46-10.46"></path><path class="cls-2" d="M466.97,194.97c0-1.67-.17-2.83-.46-3.67-.67-1.79-1.96-2.33-3.54-2.33-2.66,0-4.75,2.54-4.75,5.75v11.54h-3.46v-19.83h3.46v2.95c.88-1.92,3.29-3.42,5.96-3.42,2.88,0,4.83,1.25,5.67,3.75.96-1.92,3.29-3.75,6.58-3.75,2.71,0,4.87,1.25,5.75,4.08.29.96.46,2.12.46,3.62v12.58h-3.46v-11.29c0-1.67-.17-2.83-.46-3.67-.67-1.79-1.96-2.33-3.54-2.33-2.66,0-4.75,2.54-4.75,5.75v11.54h-3.46v-11.29.02Z"></path><path class="cls-2" d="M497.22,203.84c3.58,0,5.75-2.79,5.75-7.54s-2.34-7.5-5.83-7.5-6.08,2.5-6.08,7.5,2.71,7.54,6.17,7.54M491.4,203.34v10.83h-3.46v-27.74h3.46v2.91c.71-1.38,2.79-3.37,6.37-3.37,4.96,0,8.75,3.75,8.75,10.42s-3.59,10.37-8.63,10.37c-3.75,0-5.79-2.08-6.5-3.42"></path><path class="cls-2" d="M522.47,196.17c-.29.13-.83.29-2.29.59l-1.92.42c-1.54.33-2.96.63-3.88,1.29-.66.46-1.04,1.17-1.04,2.16,0,2.25,1.75,3.46,4.2,3.46s4.92-1.21,4.92-4.29v-3.63h0ZM527.97,206.55c-.42.08-1.08.17-1.96.17-2.42,0-3.21-1.04-3.33-2.67h-.04c-.63,1.04-2.38,2.75-6.12,2.75-4.04,0-6.75-2.16-6.75-6,0-2.25,1-3.71,2.54-4.62,1.54-.91,3.66-1.33,5.79-1.71l2.71-.46c1.25-.21,1.67-.37,1.67-1.21v-.42c0-2.08-.66-3.58-4.21-3.58s-4.67,1.83-4.67,4.21l-3.33-.38c-.08-4.46,3.71-6.62,8.16-6.62s7.38,1.29,7.38,6.25v10.08c0,1.38.5,1.79,1.71,1.79h.46v2.41h-.01Z"></path><path class="cls-2" d="M548.31,206.26h-3.46v-11.54c0-4.29-1.58-5.71-4.5-5.71-3.33,0-5.25,2.67-5.25,5.79v11.46h-3.46v-19.83h3.46v2.95c1.04-1.83,3.08-3.42,6.38-3.42,2.58,0,4.5.88,5.58,2.54.84,1.29,1.25,3,1.25,5.33v12.42h0Z"></path><path class="cls-2" d="M559.72,210.3c-1.25,3.46-3.17,4.21-6,4.21-1.04,0-1.83-.12-2.5-.25v-2.79c.83.12,1.54.21,2.25.21,1,0,1.83-.12,2.5-.79.42-.42.75-1,1.08-2l.88-2.54-6.88-19.92h3.67l3.87,12c.54,1.67,1.08,3.46,1.08,3.46h.04s.58-1.96,1.21-3.71l4.04-11.75h3.46l-8.71,23.87h.01Z"></path><path class="cls-3" d="M697.43,8.88h29.97v9.66h-17.71v24.19h13.68v9.66h-13.68v27.7h18.18v9.66h-30.44V8.88h0Z"></path><path class="cls-3" d="M736.72,8.88h9.94l19.6,54.12h.28c-.09-1.26-.22-2.67-.38-4.21s-.3-3.31-.43-5.28c-.13-1.97-.24-4.21-.33-6.7s-.14-5.3-.14-8.43V8.88h10.98v80.87h-10.04l-19.51-52.7h-.38c.09,1.42.22,2.96.38,4.62.16,1.66.3,3.6.43,5.85.13,2.24.24,4.85.33,7.83.09,2.98.14,6.53.14,10.63v23.77h-10.89V8.88h.02Z"></path><path class="cls-3" d="M790.08,8.88h13.3c1.52,0,3.18.06,5,.19,1.81.13,3.63.43,5.44.92,1.82.49,3.57,1.22,5.26,2.2,1.69.98,3.19,2.32,4.5,4.02,1.31,1.7,2.36,3.84,3.15,6.42.79,2.57,1.18,5.69,1.18,9.35v2.04c0,6.15-.88,11.17-2.65,15.03-1.77,3.87-4.37,6.65-7.81,8.36l12.97,32.34h-12.97l-10.75-30.25h-4.59v30.25h-12.03V8.88h0ZM803.95,50.64c2.15,0,3.96-.24,5.44-.71s2.68-1.27,3.6-2.39,1.58-2.61,1.99-4.45c.41-1.85.62-4.13.62-6.84v-6.39c0-2.08-.19-3.88-.57-5.4s-1.02-2.76-1.92-3.74c-.9-.98-2.09-1.7-3.58-2.18s-3.35-.71-5.59-.71h-1.85v32.81h1.86Z"></path><path class="cls-3" d="M839.7,8.88h12.26v80.87h-12.26V8.88Z"></path><path class="cls-3" d="M883.21,90.46c-1.26,0-2.63-.1-4.1-.31s-2.94-.64-4.4-1.3c-1.47-.66-2.87-1.6-4.22-2.82-1.34-1.21-2.52-2.82-3.55-4.8-1.03-1.99-1.85-4.44-2.46-7.36-.62-2.92-.92-6.4-.92-10.44v-28.64c0-4.07.31-7.55.95-10.44.63-2.89,1.47-5.32,2.51-7.29,1.04-1.97,2.24-3.54,3.6-4.71s2.76-2.06,4.21-2.67c1.45-.62,2.9-1.02,4.33-1.21,1.43-.19,2.77-.28,4-.28,3.22,0,5.91.45,8.07,1.35,2.16.9,3.9,2.13,5.21,3.69s2.24,3.39,2.8,5.47c.55,2.08.83,4.29.83,6.63,0,1.74-.09,3.34-.26,4.81s-.43,3.08-.78,4.85h-9.94v-4.12c0-4.45-.49-7.78-1.47-9.99-.98-2.21-2.41-3.31-4.31-3.31-1.14,0-2.13.22-2.98.66s-1.56,1.19-2.13,2.25-1,2.45-1.3,4.19-.45,3.9-.45,6.49v36.93c0,2.53.12,4.62.36,6.3.23,1.67.62,3.01,1.16,4.02s1.24,1.73,2.11,2.15c.87.43,1.92.64,3.15.64.79,0,1.55-.18,2.27-.55.73-.36,1.36-.93,1.92-1.7.55-.77.99-1.75,1.33-2.94.33-1.18.5-2.58.5-4.19v-7.91h11.22v7.48c0,6.5-1.48,11.3-4.45,14.39-2.97,3.09-7.23,4.66-12.78,4.69h-.03Z"></path><path class="cls-3" d="M910.1,8.88h12.26v33.85h14.54V8.88h12.26v80.87h-12.26v-37.36h-14.54v37.36h-12.26V8.88Z"></path><path class="cls-3" d="M963.08,8.88h12.26v80.87h-12.26V8.88Z"></path><path class="cls-3" d="M989.17,8.88h9.94l19.6,54.12h.28c-.09-1.26-.22-2.67-.38-4.21-.16-1.55-.3-3.31-.43-5.28-.13-1.97-.24-4.21-.33-6.7s-.14-5.3-.14-8.43V8.88h10.98v80.87h-10.04l-19.51-52.7h-.38c.09,1.42.22,2.96.38,4.62.16,1.66.3,3.6.43,5.85s.24,4.85.33,7.83c.09,2.98.14,6.53.14,10.63v23.77h-10.89V8.88h.02Z"></path><path class="cls-3" d="M1058.86,90.5c-.95,0-2.05-.1-3.31-.31-1.26-.2-2.56-.64-3.9-1.3s-2.66-1.6-3.95-2.82c-1.29-1.22-2.45-2.83-3.48-4.83-1.03-2-1.85-4.47-2.48-7.39-.63-2.92-.95-6.4-.95-10.44v-28.64c0-4.07.33-7.55.99-10.44.66-2.89,1.55-5.32,2.65-7.29,1.11-1.97,2.38-3.54,3.81-4.71s2.93-2.06,4.47-2.67c1.55-.62,3.08-1.02,4.59-1.21s2.92-.28,4.21-.28c3.28,0,6.05.45,8.31,1.35,2.26.9,4.09,2.13,5.49,3.69s2.41,3.39,3.03,5.47c.61,2.08.92,4.29.92,6.63,0,1.74-.1,3.34-.31,4.81-.2,1.47-.48,3.08-.83,4.85h-9.8v-3.83c0-8.87-2.38-13.3-7.15-13.3-1.29,0-2.41.22-3.36.66s-1.74,1.19-2.37,2.25-1.1,2.45-1.4,4.19c-.3,1.74-.45,3.9-.45,6.49v36.65c0,2.53.15,4.62.45,6.3.3,1.67.76,3.01,1.38,4.02.61,1.01,1.39,1.73,2.32,2.15.93.43,2.04.64,3.34.64s2.53-.36,3.5-1.06c.98-.71,1.78-1.68,2.41-2.91.63-1.23,1.1-2.68,1.4-4.36.3-1.67.45-3.49.45-5.44v-10.56h-6.3v-8.05h18.23v40.95h-8.14l-1.33-7.67c-1.55,3-3.32,5.15-5.33,6.46-2,1.31-4.38,1.96-7.12,1.96h.01Z"></path><path class="cls-3" d="M1112.84,8.88h12.26v71.21h16.71v9.66h-28.98V8.88h.01Z"></path><path class="cls-3" d="M1149.58,8.88h12.26v80.87h-12.26V8.88Z"></path><path class="cls-3" d="M1169.65,8.88h12.55l8.9,64.06h.52l8.95-64.06h12.5l-14.72,80.87h-14.01l-14.68-80.87h-.01Z"></path><path class="cls-3" d="M1220.88,8.88h29.97v9.66h-17.71v24.19h13.68v9.66h-13.68v27.7h18.18v9.66h-30.44V8.88h0Z"></path><path class="cls-3" d="M1257.05,73.36c0-1.74.1-3.34.31-4.8.2-1.47.51-3.05.92-4.76h9.52v3.93c0,2.18.13,4.1.4,5.78.27,1.67.71,3.09,1.33,4.24s1.44,2.02,2.46,2.6c1.03.58,2.28.88,3.76.88,2.34,0,4.12-.64,5.35-1.92s1.85-3.15,1.85-5.61c0-1.26-.09-2.42-.26-3.48-.17-1.06-.47-2.11-.9-3.15s-1-2.14-1.73-3.29-1.66-2.44-2.79-3.86l-12.78-15.2c-2.27-2.9-4.02-5.83-5.26-8.78-1.23-2.95-1.85-6.1-1.85-9.44,0-2.68.42-5.14,1.25-7.39.84-2.24,2.04-4.17,3.62-5.8,1.58-1.62,3.53-2.89,5.85-3.79s4.95-1.35,7.88-1.35c3.57,0,6.54.5,8.93,1.52,2.38,1.01,4.28,2.34,5.7,3.98,1.42,1.64,2.42,3.48,3.01,5.51.58,2.04.87,4.08.87,6.13,0,1.74-.13,3.34-.4,4.81s-.58,3.08-.92,4.85h-9.47v-3.83c0-4.29-.62-7.58-1.85-9.87s-3.24-3.43-6.01-3.43c-2.3,0-4.02.64-5.16,1.92-1.14,1.28-1.7,2.99-1.7,5.14,0,1.14.09,2.16.26,3.08.17.92.43,1.76.76,2.53s.73,1.52,1.21,2.25,1.01,1.48,1.61,2.27l14.25,17.23c2.59,3.38,4.58,6.62,5.97,9.73,1.39,3.11,2.08,6.4,2.08,9.87,0,2.87-.45,5.46-1.35,7.76s-2.18,4.26-3.86,5.87c-1.67,1.61-3.69,2.85-6.06,3.72-2.37.87-5.04,1.3-8,1.3-3.66,0-6.7-.49-9.11-1.47-2.42-.98-4.34-2.27-5.78-3.88-1.44-1.61-2.45-3.44-3.03-5.49-.58-2.05-.88-4.15-.88-6.3h0Z"></path><path class="cls-3" d="M792.4,105.66h29.97v9.66h-17.71v24.19h13.68v9.66h-13.68v27.7h18.18v9.66h-30.44v-80.87h0Z"></path><path class="cls-3" d="M834.99,105.66h9.94l19.6,54.12h.28c-.09-1.26-.22-2.67-.38-4.21-.16-1.55-.3-3.31-.43-5.28s-.24-4.21-.33-6.7c-.09-2.49-.14-5.3-.14-8.43v-29.5h10.98v80.87h-10.04l-19.51-52.7h-.38c.09,1.42.22,2.96.38,4.62.16,1.66.3,3.6.43,5.85s.24,4.85.33,7.83.14,6.53.14,10.63v23.77h-10.89v-80.87h.02Z"></path><path class="cls-3" d="M907.98,187.29c-.95,0-2.05-.1-3.31-.31-1.26-.2-2.56-.64-3.9-1.3s-2.66-1.6-3.95-2.82c-1.29-1.22-2.45-2.83-3.48-4.83-1.03-2-1.85-4.47-2.48-7.39s-.95-6.4-.95-10.44v-28.64c0-4.07.33-7.55.99-10.44s1.55-5.32,2.65-7.29c1.11-1.97,2.38-3.54,3.81-4.71s2.93-2.06,4.47-2.67c1.55-.62,3.08-1.02,4.59-1.21s2.92-.28,4.21-.28c3.28,0,6.05.45,8.31,1.35s4.09,2.13,5.49,3.69c1.4,1.56,2.41,3.39,3.03,5.47.61,2.08.92,4.29.92,6.63,0,1.74-.1,3.34-.31,4.81-.2,1.47-.48,3.08-.83,4.85h-9.8v-3.83c0-8.87-2.38-13.3-7.15-13.3-1.29,0-2.41.22-3.36.66s-1.74,1.19-2.37,2.25-1.1,2.45-1.4,4.19c-.3,1.74-.45,3.9-.45,6.49v36.65c0,2.53.15,4.62.45,6.3.3,1.67.76,3.01,1.38,4.02.61,1.01,1.39,1.73,2.32,2.15.93.43,2.04.64,3.34.64s2.53-.36,3.5-1.06c.98-.71,1.78-1.68,2.41-2.91s1.1-2.68,1.4-4.36c.3-1.67.45-3.49.45-5.44v-10.56h-6.3v-8.05h18.23v40.95h-8.14l-1.33-7.67c-1.55,3-3.32,5.15-5.33,6.46-2,1.31-4.38,1.96-7.12,1.96h.01Z"></path><path class="cls-3" d="M944.51,105.66h12.26v80.87h-12.26s0-80.87,0-80.87Z"></path><path class="cls-3" d="M973.9,105.66h9.94l19.6,54.12h.28c-.09-1.26-.22-2.67-.38-4.21s-.3-3.31-.43-5.28-.24-4.21-.33-6.7c-.09-2.49-.14-5.3-.14-8.43v-29.5h10.98v80.87h-10.04l-19.51-52.7h-.38c.09,1.42.22,2.96.38,4.62.16,1.66.3,3.6.43,5.85s.24,4.85.33,7.83.14,6.53.14,10.63v23.77h-10.89v-80.87h.02Z"></path><path class="cls-3" d="M1030.55,105.66h29.97v9.66h-17.71v24.19h13.68v9.66h-13.68v27.7h18.18v9.66h-30.44v-80.87h0Z"></path><path class="cls-3" d="M1073.14,105.66h29.97v9.66h-17.71v24.19h13.68v9.66h-13.68v27.7h18.18v9.66h-30.44v-80.87h0Z"></path><path class="cls-3" d="M1115.74,105.66h13.3c1.52,0,3.18.06,5,.19,1.81.13,3.63.43,5.44.92,1.82.49,3.57,1.22,5.26,2.2,1.69.98,3.19,2.32,4.5,4.02s2.36,3.84,3.15,6.42c.79,2.57,1.18,5.69,1.18,9.35v2.04c0,6.15-.88,11.17-2.65,15.03-1.77,3.87-4.37,6.65-7.81,8.36l12.97,32.34h-12.97l-10.75-30.25h-4.59v30.25h-12.03v-80.87h0ZM1129.61,147.42c2.15,0,3.96-.24,5.44-.71s2.68-1.27,3.6-2.39c.92-1.12,1.58-2.61,1.99-4.45.41-1.85.62-4.13.62-6.84v-6.39c0-2.08-.19-3.88-.57-5.4-.38-1.52-1.02-2.76-1.92-3.74-.9-.98-2.09-1.7-3.58-2.18s-3.35-.71-5.59-.71h-1.85v32.81h1.86Z"></path><path class="cls-3" d="M1168.65,105.66h12.26v80.87h-12.26s0-80.87,0-80.87Z"></path><path class="cls-3" d="M1198.04,105.66h9.94l19.6,54.12h.28c-.09-1.26-.22-2.67-.38-4.21s-.3-3.31-.43-5.28c-.13-1.97-.24-4.21-.33-6.7-.09-2.49-.14-5.3-.14-8.43v-29.5h10.98v80.87h-10.04l-19.51-52.7h-.38c.09,1.42.22,2.96.38,4.62.16,1.66.3,3.6.43,5.85.13,2.24.24,4.85.33,7.83s.14,6.53.14,10.63v23.77h-10.89v-80.87h.02Z"></path><path class="cls-3" d="M1271.03,187.29c-.95,0-2.05-.1-3.31-.31-1.26-.2-2.56-.64-3.9-1.3s-2.66-1.6-3.95-2.82c-1.29-1.22-2.45-2.83-3.48-4.83-1.03-2-1.85-4.47-2.48-7.39s-.95-6.4-.95-10.44v-28.64c0-4.07.33-7.55.99-10.44s1.55-5.32,2.65-7.29c1.11-1.97,2.38-3.54,3.81-4.71s2.93-2.06,4.47-2.67c1.55-.62,3.08-1.02,4.59-1.21s2.92-.28,4.21-.28c3.28,0,6.05.45,8.31,1.35s4.09,2.13,5.49,3.69c1.4,1.56,2.41,3.39,3.03,5.47.61,2.08.92,4.29.92,6.63,0,1.74-.1,3.34-.31,4.81-.2,1.47-.48,3.08-.83,4.85h-9.8v-3.83c0-8.87-2.38-13.3-7.15-13.3-1.29,0-2.41.22-3.36.66s-1.74,1.19-2.37,2.25c-.63,1.06-1.1,2.45-1.4,4.19-.3,1.74-.45,3.9-.45,6.49v36.65c0,2.53.15,4.62.45,6.3.3,1.67.76,3.01,1.38,4.02.61,1.01,1.39,1.73,2.32,2.15.93.43,2.04.64,3.34.64s2.53-.36,3.5-1.06c.98-.71,1.78-1.68,2.41-2.91s1.1-2.68,1.4-4.36c.3-1.67.45-3.49.45-5.44v-10.56h-6.3v-8.05h18.23v40.95h-8.14l-1.33-7.67c-1.55,3-3.32,5.15-5.33,6.46-2,1.31-4.38,1.96-7.12,1.96h.01Z"></path><path class="cls-3" d="M792.4,203.05h29.97v9.66h-17.71v24.19h13.68v9.66h-13.68v27.7h18.18v9.66h-30.44v-80.87h0Z"></path><path class="cls-3" d="M844.41,243.2l-14.77-40.15h13.11l7.53,25.85h.47l7.53-25.85h12.69l-14.82,40.2,14.82,40.67h-12.64l-7.67-25.99h-.8l-8,25.99h-12.22l14.77-40.72h0Z"></path><path class="cls-3" d="M900.17,284.63c-1.26,0-2.63-.1-4.1-.31s-2.94-.64-4.4-1.3c-1.47-.66-2.87-1.6-4.22-2.82-1.34-1.21-2.52-2.82-3.55-4.8-1.03-1.99-1.85-4.44-2.46-7.36-.62-2.92-.92-6.4-.92-10.44v-28.64c0-4.07.31-7.55.95-10.44.63-2.89,1.47-5.32,2.51-7.29,1.04-1.97,2.24-3.54,3.6-4.71s2.76-2.06,4.21-2.67c1.45-.62,2.9-1.02,4.33-1.21s2.77-.28,4-.28c3.22,0,5.91.45,8.07,1.35,2.16.9,3.9,2.13,5.21,3.69s2.24,3.39,2.8,5.47c.55,2.08.83,4.29.83,6.63,0,1.74-.09,3.34-.26,4.81s-.43,3.08-.78,4.85h-9.94v-4.12c0-4.45-.49-7.78-1.47-9.99s-2.41-3.31-4.31-3.31c-1.14,0-2.13.22-2.98.66s-1.56,1.19-2.13,2.25-1,2.45-1.3,4.19-.45,3.9-.45,6.49v36.93c0,2.53.12,4.62.36,6.3.23,1.67.62,3.01,1.16,4.02s1.24,1.73,2.11,2.15c.87.43,1.92.64,3.15.64.79,0,1.55-.18,2.27-.55.73-.36,1.36-.93,1.92-1.7.55-.77.99-1.75,1.33-2.94.33-1.18.5-2.58.5-4.19v-7.91h11.22v7.48c0,6.5-1.48,11.3-4.45,14.39-2.97,3.09-7.23,4.66-12.78,4.69h-.03Z"></path><path class="cls-3" d="M930.36,203.05h29.97v9.66h-17.71v24.19h13.68v9.66h-13.68v27.7h18.18v9.66h-30.44v-80.87h0Z"></path><path class="cls-3" d="M972.95,203.05h12.26v71.21h16.71v9.66h-28.98v-80.87h0Z"></path><path class="cls-3" d="M1012.99,203.05h12.26v71.21h16.71v9.66h-28.98v-80.87h.01Z"></path><path class="cls-3" d="M1053.02,203.05h29.97v9.66h-17.71v24.19h13.68v9.66h-13.68v27.7h18.18v9.66h-30.44v-80.87h0Z"></path><path class="cls-3" d="M1095.62,203.05h9.94l19.6,54.12h.28c-.09-1.26-.22-2.67-.38-4.21-.16-1.55-.3-3.31-.43-5.28s-.24-4.21-.33-6.7c-.09-2.49-.14-5.3-.14-8.43v-29.5h10.98v80.87h-10.04l-19.51-52.7h-.38c.09,1.42.22,2.96.38,4.62.16,1.66.3,3.6.43,5.85.13,2.24.24,4.85.33,7.83.09,2.98.14,6.53.14,10.63v23.77h-10.89v-80.87h.02Z"></path><path class="cls-3" d="M1169.69,284.63c-1.26,0-2.63-.1-4.1-.31s-2.94-.64-4.4-1.3c-1.47-.66-2.87-1.6-4.22-2.82-1.34-1.21-2.52-2.82-3.55-4.8-1.03-1.99-1.85-4.44-2.46-7.36-.62-2.92-.92-6.4-.92-10.44v-28.64c0-4.07.31-7.55.95-10.44.63-2.89,1.47-5.32,2.51-7.29,1.04-1.97,2.24-3.54,3.6-4.71,1.36-1.17,2.76-2.06,4.21-2.67,1.45-.62,2.9-1.02,4.33-1.21,1.43-.19,2.77-.28,4-.28,3.22,0,5.91.45,8.07,1.35,2.16.9,3.9,2.13,5.21,3.69,1.31,1.56,2.24,3.39,2.8,5.47.55,2.08.83,4.29.83,6.63,0,1.74-.09,3.34-.26,4.81-.17,1.47-.43,3.08-.78,4.85h-9.94v-4.12c0-4.45-.49-7.78-1.47-9.99s-2.41-3.31-4.31-3.31c-1.14,0-2.13.22-2.98.66s-1.56,1.19-2.13,2.25-1,2.45-1.3,4.19c-.3,1.74-.45,3.9-.45,6.49v36.93c0,2.53.12,4.62.36,6.3.23,1.67.62,3.01,1.16,4.02s1.24,1.73,2.11,2.15c.87.43,1.92.64,3.15.64.79,0,1.55-.18,2.27-.55.73-.36,1.36-.93,1.92-1.7.55-.77.99-1.75,1.33-2.94.33-1.18.5-2.58.5-4.19v-7.91h11.22v7.48c0,6.5-1.48,11.3-4.45,14.39-2.97,3.09-7.23,4.66-12.78,4.69h-.03Z"></path><path class="cls-3" d="M1199.88,203.05h29.97v9.66h-17.71v24.19h13.68v9.66h-13.68v27.7h18.18v9.66h-30.44v-80.87h0Z"></path><rect class="cls-4" x="697.38" y="103.87" width="78.92" height="180.1"></rect><path class="cls-5" d="M721.27,267.78v6.79h-5.04v-19.96h5.04v6.77h37.15v6.4h-37.15Z"></path><path class="cls-5" d="M716.23,252.93v-6.4h17.66v-7.58h-17.66v-6.4h42.19v6.4h-19.49v7.58h19.49v6.4h-42.19Z"></path><path class="cls-5" d="M716.23,227.92v-6.94c0-.79.03-1.66.1-2.61s.23-1.89.48-2.84.64-1.86,1.15-2.74,1.21-1.66,2.1-2.35,2-1.23,3.35-1.64,2.97-.62,4.88-.62h1.06c3.21,0,5.83.46,7.84,1.38s3.47,2.28,4.36,4.08l16.87-6.77v6.77l-15.78,5.61v2.4h15.78v6.27h-42.19,0ZM738.02,220.68c0-1.12-.12-2.07-.37-2.84s-.66-1.4-1.25-1.88-1.36-.82-2.32-1.04-2.15-.32-3.57-.32h-3.33c-1.09,0-2.03.1-2.82.3s-1.44.53-1.95,1-.89,1.09-1.14,1.86-.37,1.75-.37,2.91v.96h17.12v-.96h0Z"></path><path class="cls-5" d="M758.8,195.32c0,.68-.05,1.41-.16,2.2s-.33,1.57-.68,2.35-.84,1.52-1.47,2.24-1.47,1.35-2.51,1.9-2.32.99-3.84,1.32-3.34.49-5.45.49h-14.94c-2.12,0-3.94-.17-5.45-.51s-2.77-.79-3.8-1.35-1.85-1.2-2.46-1.91-1.07-1.47-1.4-2.25-.53-1.56-.63-2.33-.15-1.49-.15-2.15.05-1.32.14-2.09.29-1.53.59-2.3.76-1.51,1.36-2.24,1.42-1.37,2.45-1.93,2.31-1.01,3.83-1.35,3.36-.51,5.52-.51h14.94c2.09,0,3.89.17,5.4.52s2.78.8,3.83,1.36,1.89,1.21,2.52,1.94,1.13,1.48,1.48,2.25.59,1.53.7,2.28.17,1.44.17,2.05v.02ZM753.98,195.32c0-.63-.11-1.17-.32-1.64s-.58-.86-1.11-1.16-1.22-.54-2.09-.69-1.96-.23-3.27-.23h-19.19c-1.35,0-2.48.08-3.38.23s-1.63.39-2.19.69-.94.69-1.17,1.16-.35,1.02-.35,1.64.12,1.2.35,1.68.62.87,1.17,1.19,1.28.55,2.19.7,2.03.23,3.38.23h19.19c1.32,0,2.41-.08,3.27-.23s1.56-.39,2.09-.7.9-.71,1.11-1.19.32-1.04.32-1.68Z"></path><path class="cls-5" d="M716.23,181.65v-6.45h30.93c1.32,0,2.41-.07,3.29-.2s1.57-.34,2.09-.63.89-.66,1.11-1.11.33-.99.33-1.62-.11-1.17-.33-1.64-.59-.86-1.11-1.16-1.21-.54-2.09-.69-1.97-.23-3.29-.23h-30.93v-6.37h29.22c2.06,0,3.82.16,5.29.49s2.69.77,3.68,1.31,1.77,1.17,2.35,1.86,1.02,1.42,1.32,2.17.5,1.49.58,2.24.12,1.42.12,2.03-.04,1.28-.12,2.01-.28,1.47-.58,2.21-.75,1.46-1.32,2.15-1.36,1.31-2.35,1.85-2.21.98-3.67,1.3-3.22.48-5.3.48h-29.22Z"></path><path class="cls-5" d="M758.82,148.59c0,.49-.05,1.07-.16,1.73s-.33,1.34-.68,2.04-.84,1.39-1.47,2.06-1.47,1.28-2.52,1.82-2.33.97-3.85,1.3-3.34.49-5.45.49h-14.94c-2.12,0-3.94-.17-5.45-.52s-2.77-.81-3.8-1.38-1.85-1.24-2.46-1.99-1.07-1.53-1.4-2.33-.53-1.61-.63-2.4-.15-1.52-.15-2.2c0-1.71.23-3.16.7-4.34s1.11-2.13,1.93-2.87,1.77-1.26,2.85-1.58,2.24-.48,3.46-.48c.91,0,1.74.05,2.51.16s1.61.25,2.53.43v5.11h-2c-4.63,0-6.94,1.24-6.94,3.73,0,.68.12,1.26.35,1.75s.62.91,1.17,1.24,1.28.57,2.19.73,2.03.23,3.38.23h19.12c1.32,0,2.41-.08,3.29-.23s1.57-.4,2.1-.72.9-.72,1.12-1.21.33-1.07.33-1.74-.19-1.32-.56-1.83-.88-.93-1.52-1.26-1.4-.57-2.27-.73-1.82-.23-2.84-.23h-5.51v3.29h-4.2v-9.51h21.37v4.25l-4,.69c1.56.81,2.69,1.73,3.37,2.78s1.03,2.28,1.03,3.72h0Z"></path><path class="cls-5" d="M716.23,133.88v-6.4h17.66v-7.58h-17.66v-6.4h42.19v6.4h-19.49v7.58h19.49v6.4h-42.19Z"></path><rect class="cls-1" x="637.08" y="36.59" width="2.74" height="219.35"></rect></svg>