<svg width="80" height="80" viewBox="0 0 64 64" fill="none" xmlns="http://www.w3.org/2000/svg">
<path opacity="0.4" d="M31.9997 48.0007H32.0264M24.4584 40.4593C26.4587 38.4596 29.1713 37.3363 31.9997 37.3363C34.8281 37.3363 37.5407 38.4596 39.541 40.4593M16.9144 32.9153C18.8954 30.9342 21.2472 29.3627 23.8356 28.2905C26.4239 27.2183 29.1981 26.6665 31.9997 26.6665C34.8013 26.6665 37.5755 27.2183 40.1639 28.2905C42.7522 29.3627 45.1041 30.9342 47.0851 32.9153M9.37305 25.374C21.869 12.8753 42.1304 12.8753 54.7064 25.374" stroke="#D0D5DD" stroke-width="5" stroke-linecap="round" stroke-linejoin="round"/>
<path d="M32.0003 48.0003H32.027M24.459 40.459C26.4593 38.4593 29.1719 37.3359 32.0003 37.3359C34.8287 37.3359 37.5414 38.4593 39.5417 40.459" stroke="#F59F00" stroke-width="5" stroke-linecap="round" stroke-linejoin="round"/>
</svg>
