<svg width="80" height="80" viewBox="0 0 64 64" fill="none" xmlns="http://www.w3.org/2000/svg">
<g opacity="0.5">
<path opacity="0.4" d="M31.9997 48.0007H32.0264M24.4584 40.4593C26.4587 38.4596 29.1713 37.3363 31.9997 37.3363C34.8281 37.3363 37.5407 38.4596 39.541 40.4593M16.9144 32.9153C18.8954 30.9342 21.2472 29.3627 23.8356 28.2905C26.4239 27.2183 29.1981 26.6665 31.9997 26.6665C34.8013 26.6665 37.5755 27.2183 40.1639 28.2905C42.7522 29.3627 45.1041 30.9342 47.0851 32.9153M9.37305 25.374C21.869 12.8753 42.1304 12.8753 54.7064 25.374" stroke="#D0D5DD" stroke-width="5" stroke-linecap="round" stroke-linejoin="round"/>
</g>
<path d="M31.9994 48.0002H32.0261M24.458 40.4588C26.4583 38.4591 29.171 37.3358 31.9994 37.3358C34.8278 37.3358 37.5404 38.4591 39.5407 40.4588M16.9141 32.9148C18.8951 30.9337 21.2469 29.3622 23.8352 28.29C26.4236 27.2179 29.1978 26.666 31.9994 26.666C34.801 26.666 37.5752 27.2179 40.1636 28.29C42.7519 29.3622 45.1037 30.9337 47.0847 32.9148" stroke="#2F74EB" stroke-width="5" stroke-linecap="round" stroke-linejoin="round"/>
</svg>
